<?xml version="1.0" standalone="no"?>
<!DOCTYPE svg PUBLIC "-//W3C//DTD SVG 20010904//EN"
 "http://www.w3.org/TR/2001/REC-SVG-20010904/DTD/svg10.dtd">
<svg version="1.0" xmlns="http://www.w3.org/2000/svg"
 width="8017.000000pt" height="27376.000000pt" viewBox="0 0 8017.000000 27376.000000"
 preserveAspectRatio="xMidYMid meet">

<g transform="translate(0.000000,27376.000000) scale(0.100000,-0.100000)"
fill="#000000" stroke="none">
<path d="M5008 192213 c-2 -6671 -2 -12191 -1 -12268 5 -469 172 -1013 446
-1445 225 -356 529 -666 877 -895 400 -262 858 -421 1345 -465 73 -7 11075
-10 32618 -10 29051 0 32523 -2 32653 -15 546 -58 1049 -261 1494 -605 115
-89 381 -353 474 -470 315 -397 516 -858 598 -1371 l23 -144 0 -31390 0
-31390 -23 -144 c-91 -569 -333 -1085 -705 -1502 -502 -563 -1186 -902 -1932
-958 -98 -8 -10012 -11 -32926 -11 -22397 0 -32820 -3 -32890 -10 -357 -36
-690 -132 -1018 -296 -275 -136 -504 -299 -730 -519 -533 -518 -838 -1179
-891 -1925 -6 -92 -10 -1032 -10 -2582 l0 -2438 25 0 25 0 3 2563 c3 2795 -1
2583 58 2868 176 854 752 1602 1538 1995 288 144 556 226 911 281 110 17 1617
18 33050 23 l32935 5 139 23 c315 52 587 139 865 278 275 136 504 299 730 519
532 518 837 1175 891 1922 13 185 13 62319 0 62558 -5 94 -16 218 -25 275
-198 1324 -1259 2339 -2600 2490 -60 7 -10765 10 -32565 10 -21800 0 -32527 3
-32634 10 -87 6 -204 17 -260 25 -489 74 -961 279 -1356 591 -131 104 -404
383 -503 515 -294 393 -473 806 -551 1269 -30 174 -52 463 -36 468 7 3 10
3729 10 12148 l0 12144 -25 0 -25 0 -2 -12127z"/>
</g>
</svg>
